<svg width="683" height="683" viewBox="0 0 683 683" fill="none" xmlns="http://www.w3.org/2000/svg">
<g clip-path="url(#clip0_1416_208)">
<rect width="682.667" height="682.667" rx="24" fill="url(#paint0_linear_1416_208)"/>
<path d="M405.5 572H619.5L653 608L619.5 644H405.5V572Z" fill="#71938A"/>
<path d="M192 572H406L439.5 608L406 644H192V572Z" fill="#59524D"/>
<path d="M-235 572H-21L12.5 608L-21 644H-235V572Z" fill="#151515"/>
<path d="M521.574 599.128C523.345 599.128 524.877 599.487 526.169 600.205C527.485 600.923 528.658 601.761 529.687 602.718C530.74 603.675 531.745 604.513 532.703 605.231C533.684 605.949 534.713 606.308 535.79 606.308C537.154 606.308 538.315 605.829 539.272 604.872C540.253 603.891 541.222 602.491 542.18 600.672L548.533 603.544C547.002 606.87 545.243 609.598 543.256 611.728C541.294 613.834 538.709 614.887 535.503 614.887C533.779 614.887 532.26 614.528 530.944 613.81C529.651 613.092 528.479 612.255 527.426 611.297C526.373 610.34 525.356 609.503 524.374 608.785C523.393 608.067 522.364 607.708 521.287 607.708C519.899 607.708 518.715 608.21 517.733 609.215C516.776 610.22 515.831 611.585 514.897 613.308L508.544 610.472C509.525 608.461 510.614 606.595 511.81 604.872C513.007 603.149 514.395 601.761 515.974 600.708C517.554 599.655 519.42 599.128 521.574 599.128Z" fill="#3B3836"/>
<path d="M308.574 599.128C310.345 599.128 311.877 599.487 313.169 600.205C314.485 600.923 315.658 601.761 316.687 602.718C317.74 603.675 318.745 604.513 319.703 605.231C320.684 605.949 321.713 606.308 322.79 606.308C324.154 606.308 325.315 605.829 326.272 604.872C327.253 603.891 328.222 602.491 329.18 600.672L335.533 603.544C334.002 606.87 332.243 609.598 330.256 611.728C328.294 613.834 325.709 614.887 322.503 614.887C320.779 614.887 319.26 614.528 317.944 613.81C316.651 613.092 315.479 612.255 314.426 611.297C313.373 610.34 312.356 609.503 311.374 608.785C310.393 608.067 309.364 607.708 308.287 607.708C306.899 607.708 305.715 608.21 304.733 609.215C303.776 610.22 302.831 611.585 301.897 613.308L295.544 610.472C296.525 608.461 297.614 606.595 298.81 604.872C300.007 603.149 301.395 601.761 302.974 600.708C304.554 599.655 306.42 599.128 308.574 599.128Z" fill="#87ADA3"/>
<path d="M-21.5 572H192.5L226 608L192.5 644H-21.5V572Z" fill="#3B3836"/>
<path d="M94.5744 599.128C96.3453 599.128 97.8769 599.487 99.1692 600.205C100.485 600.923 101.658 601.761 102.687 602.718C103.74 603.675 104.745 604.513 105.703 605.231C106.684 605.949 107.713 606.308 108.79 606.308C110.154 606.308 111.315 605.829 112.272 604.872C113.253 603.891 114.222 602.491 115.179 600.672L121.533 603.544C120.002 606.87 118.243 609.598 116.256 611.728C114.294 613.834 111.709 614.887 108.503 614.887C106.779 614.887 105.26 614.528 103.944 613.81C102.651 613.092 101.479 612.255 100.426 611.297C99.3726 610.34 98.3556 609.503 97.3744 608.785C96.3932 608.067 95.3641 607.708 94.2872 607.708C92.8991 607.708 91.7145 608.21 90.7333 609.215C89.7761 610.22 88.8308 611.585 87.8974 613.308L81.5436 610.472C82.5248 608.461 83.6137 606.595 84.8102 604.872C86.0068 603.149 87.3949 601.761 88.9744 600.708C90.5539 599.655 92.4205 599.128 94.5744 599.128Z" fill="#ABA293"/>
<path d="M103.651 130.897C97.5966 130.897 92.8102 128.756 89.2923 124.472C85.7743 120.188 84.0154 113.774 84.0154 105.231C84.0154 100.971 84.5897 97.2495 85.7385 94.0666C86.8872 90.8598 88.4427 88.1914 90.4051 86.0615C92.3914 83.9077 94.641 82.3042 97.1538 81.2513C99.6906 80.1743 102.335 79.6359 105.087 79.6359C108.366 79.6359 111.094 80.1145 113.272 81.0718C115.473 82.029 117.544 83.4051 119.482 85.2L115.318 89.5077C112.374 86.7795 109 85.4154 105.195 85.4154C102.85 85.4154 100.636 86.0376 98.5538 87.282C96.4718 88.5265 94.7846 90.5966 93.4923 93.4923C92.2 96.388 91.5538 100.301 91.5538 105.231C91.5538 112.291 92.6188 117.376 94.7487 120.487C96.8786 123.574 100.014 125.118 104.154 125.118C107.313 125.118 110.268 124.364 113.021 122.856V108.39H103.867L103.041 102.718H120.021V126.482C117.747 127.75 115.318 128.803 112.733 129.641C110.173 130.479 107.145 130.897 103.651 130.897Z" fill="#ABA293"/>
<path d="M127.782 130V124.903H133.525V97.2615H127.782V92.1641H138.802L140.059 101.031C141.495 97.8957 143.254 95.4906 145.336 93.8154C147.442 92.1162 150.17 91.2666 153.52 91.2666C154.621 91.2666 155.59 91.3504 156.428 91.5179C157.289 91.6854 158.163 91.9008 159.048 92.1641L157.972 105.446H152.659V97.5487H152.623C146.951 97.5487 142.883 101.605 140.418 109.718V124.903H148.1V130H127.782Z" fill="#ABA293"/>
<path d="M173.882 92.1641V118.8C173.882 121.193 174.36 122.916 175.317 123.969C176.299 124.998 177.806 125.513 179.841 125.513C181.755 125.513 183.586 124.95 185.333 123.826C187.104 122.701 188.48 121.361 189.461 119.805V92.1641H196.353V130H190.43L189.928 125.01C188.468 126.925 186.649 128.385 184.471 129.39C182.317 130.395 180.128 130.897 177.902 130.897C174.241 130.897 171.5 129.904 169.682 127.918C167.887 125.932 166.989 123.179 166.989 119.662V92.1641H173.882Z" fill="#ABA293"/>
<path d="M238.792 92.1641L225.222 130H217.181L203.684 92.1641H211.007L221.381 124.005L231.72 92.1641H238.792Z" fill="#ABA293"/>
<path d="M253.014 96.9025C254.355 95.1316 255.922 93.7555 257.717 92.7743C259.536 91.7692 261.51 91.2666 263.64 91.2666C266.99 91.2666 269.707 92.0923 271.789 93.7436C273.871 95.3709 275.39 97.6683 276.348 100.636C277.305 103.579 277.784 107.05 277.784 111.046C277.784 114.875 277.209 118.285 276.06 121.277C274.912 124.268 273.225 126.626 270.999 128.349C268.773 130.048 266.033 130.897 262.778 130.897C258.447 130.897 255.061 129.318 252.619 126.159L252.189 130H246.122V76.9436L253.014 76.1179V96.9025ZM261.091 125.477C264.059 125.477 266.344 124.304 267.948 121.959C269.575 119.59 270.389 115.952 270.389 111.046C270.389 106.14 269.659 102.526 268.199 100.205C266.763 97.8598 264.681 96.6871 261.953 96.6871C259.99 96.6871 258.255 97.2854 256.748 98.482C255.24 99.6547 253.996 100.995 253.014 102.503V120.81C253.972 122.246 255.144 123.383 256.532 124.22C257.92 125.058 259.44 125.477 261.091 125.477Z" fill="#ABA293"/>
<path d="M300.442 91.2666C305.851 91.2666 309.955 93.0615 312.755 96.6513C315.579 100.241 316.991 105.039 316.991 111.046C316.991 114.947 316.345 118.393 315.053 121.385C313.784 124.376 311.917 126.709 309.453 128.385C306.988 130.06 303.96 130.897 300.37 130.897C294.962 130.897 290.834 129.103 287.986 125.513C285.162 121.923 283.75 117.125 283.75 111.118C283.75 107.193 284.384 103.747 285.653 100.779C286.945 97.788 288.823 95.4547 291.288 93.7795C293.777 92.1042 296.829 91.2666 300.442 91.2666ZM300.442 96.7589C297.331 96.7589 294.986 97.9316 293.406 100.277C291.827 102.598 291.037 106.212 291.037 111.118C291.037 115.976 291.815 119.578 293.37 121.923C294.926 124.244 297.259 125.405 300.37 125.405C303.482 125.405 305.815 124.244 307.37 121.923C308.926 119.578 309.704 115.952 309.704 111.046C309.704 106.164 308.926 102.562 307.37 100.241C305.815 97.9196 303.506 96.7589 300.442 96.7589Z" fill="#ABA293"/>
<path d="M329.742 130H321.988L335.809 110.041L323.639 92.1641H331.68L340.009 105.913L348.409 92.1641H356.127L344.065 109.754L357.886 130H349.593L339.721 114.097L329.742 130Z" fill="#ABA293"/>
<path d="M119.231 152.533L122.031 202H115.354L113.954 176.908C113.834 174.562 113.75 172.229 113.703 169.908C113.655 167.586 113.631 165.468 113.631 163.554C113.655 161.615 113.691 160.072 113.738 158.923L105.841 193.205H99.1641L90.6923 158.923C90.7641 160.024 90.812 161.579 90.8359 163.59C90.8838 165.6 90.8957 167.79 90.8718 170.159C90.8718 172.504 90.8359 174.754 90.7641 176.908L89.5795 202H83.0461L85.8462 152.533H95.0718L102.682 186.097L109.933 152.533H119.231Z" fill="#ABA293"/>
<path d="M155.315 193.313C155.315 194.82 155.554 195.921 156.033 196.615C156.512 197.285 157.266 197.788 158.295 198.123L156.679 202.862C154.956 202.646 153.448 202.132 152.156 201.318C150.888 200.504 149.954 199.26 149.356 197.585C147.992 199.356 146.269 200.684 144.187 201.569C142.105 202.455 139.843 202.897 137.402 202.897C133.597 202.897 130.594 201.82 128.392 199.667C126.19 197.513 125.089 194.677 125.089 191.159C125.089 187.234 126.621 184.219 129.684 182.113C132.772 179.983 137.199 178.918 142.966 178.918H148.459V176.046C148.459 173.438 147.681 171.583 146.125 170.482C144.594 169.381 142.452 168.831 139.7 168.831C138.431 168.831 136.936 168.986 135.213 169.297C133.513 169.609 131.695 170.099 129.756 170.769L127.997 165.744C130.319 164.858 132.556 164.224 134.71 163.841C136.864 163.458 138.874 163.267 140.741 163.267C145.599 163.267 149.237 164.379 151.654 166.605C154.095 168.831 155.315 171.858 155.315 175.687V193.313ZM139.341 197.728C141.088 197.728 142.775 197.273 144.402 196.364C146.054 195.455 147.406 194.186 148.459 192.559V183.405H143.433C139.436 183.405 136.601 184.087 134.925 185.451C133.25 186.791 132.413 188.634 132.413 190.979C132.413 195.479 134.722 197.728 139.341 197.728Z" fill="#ABA293"/>
<path d="M197.717 200.062C196.377 200.923 194.762 201.605 192.871 202.108C191.005 202.634 189.114 202.897 187.199 202.897C182.988 202.897 179.757 201.797 177.507 199.595C175.282 197.393 174.169 194.533 174.169 191.015V169.333H165.589V164.164H174.169V155.62L181.061 154.795V164.164H193.984L193.194 169.333H181.061V190.944C181.061 193.026 181.588 194.593 182.641 195.646C183.717 196.699 185.5 197.226 187.989 197.226C189.377 197.226 190.658 197.07 191.83 196.759C193.027 196.424 194.128 195.981 195.133 195.431L197.717 200.062Z" fill="#ABA293"/>
<path d="M212.12 185.415C212.311 189.579 213.436 192.607 215.494 194.497C217.576 196.388 220.041 197.333 222.889 197.333C224.78 197.333 226.515 197.046 228.094 196.472C229.674 195.897 231.277 195.06 232.904 193.959L236.027 198.303C234.256 199.715 232.21 200.839 229.889 201.677C227.568 202.491 225.162 202.897 222.674 202.897C218.892 202.897 215.674 202.072 213.017 200.42C210.385 198.745 208.374 196.424 206.986 193.456C205.622 190.489 204.94 187.043 204.94 183.118C204.94 179.313 205.622 175.915 206.986 172.923C208.374 169.932 210.325 167.574 212.838 165.851C215.35 164.128 218.342 163.267 221.812 163.267C226.694 163.267 230.535 164.942 233.335 168.292C236.159 171.619 237.571 176.178 237.571 181.969C237.571 182.615 237.559 183.238 237.535 183.836C237.511 184.434 237.475 184.961 237.427 185.415H212.12ZM221.884 168.651C219.18 168.651 216.942 169.609 215.171 171.523C213.4 173.438 212.383 176.393 212.12 180.39H230.93C230.858 176.561 230.021 173.653 228.417 171.667C226.838 169.656 224.66 168.651 221.884 168.651Z" fill="#ABA293"/>
<path d="M246.481 202V196.903H252.225V169.262H246.481V164.164H257.502L258.758 173.031C260.194 169.896 261.953 167.491 264.035 165.815C266.141 164.116 268.869 163.267 272.219 163.267C273.32 163.267 274.29 163.35 275.127 163.518C275.989 163.685 276.862 163.901 277.748 164.164L276.671 177.446H271.358V169.549H271.322C265.65 169.549 261.582 173.605 259.117 181.718V196.903H266.799V202H246.481Z" fill="#ABA293"/>
<path d="M300.37 146.072C301.806 146.072 302.955 146.515 303.817 147.4C304.702 148.285 305.145 149.362 305.145 150.631C305.145 151.947 304.702 153.06 303.817 153.969C302.955 154.855 301.806 155.297 300.37 155.297C298.959 155.297 297.81 154.855 296.924 153.969C296.063 153.06 295.632 151.947 295.632 150.631C295.632 149.362 296.063 148.285 296.924 147.4C297.81 146.515 298.959 146.072 300.37 146.072ZM305.504 164.164V196.759H316.022V202H287.088V196.759H298.612V169.405H287.447V164.164H305.504Z" fill="#ABA293"/>
<path d="M353.147 193.313C353.147 194.82 353.386 195.921 353.865 196.615C354.344 197.285 355.098 197.788 356.127 198.123L354.511 202.862C352.788 202.646 351.28 202.132 349.988 201.318C348.72 200.504 347.786 199.26 347.188 197.585C345.824 199.356 344.101 200.684 342.019 201.569C339.937 202.455 337.675 202.897 335.234 202.897C331.429 202.897 328.426 201.82 326.224 199.667C324.022 197.513 322.922 194.677 322.922 191.159C322.922 187.234 324.453 184.219 327.516 182.113C330.604 179.983 335.031 178.918 340.798 178.918H346.291V176.046C346.291 173.438 345.513 171.583 343.957 170.482C342.426 169.381 340.284 168.831 337.532 168.831C336.263 168.831 334.768 168.986 333.045 169.297C331.345 169.609 329.527 170.099 327.588 170.769L325.829 165.744C328.151 164.858 330.388 164.224 332.542 163.841C334.696 163.458 336.706 163.267 338.573 163.267C343.431 163.267 347.069 164.379 349.486 166.605C351.927 168.831 353.147 171.858 353.147 175.687V193.313ZM337.173 197.728C338.92 197.728 340.607 197.273 342.234 196.364C343.886 195.455 345.238 194.186 346.291 192.559V183.405H341.265C337.268 183.405 334.433 184.087 332.757 185.451C331.082 186.791 330.245 188.634 330.245 190.979C330.245 195.479 332.554 197.728 337.173 197.728Z" fill="#ABA293"/>
<path d="M380.365 148.944V192.236C380.365 194.055 380.927 195.347 382.052 196.113C383.177 196.855 384.625 197.226 386.396 197.226C387.52 197.226 388.585 197.118 389.59 196.903C390.62 196.663 391.625 196.34 392.606 195.933L394.401 200.851C393.348 201.402 392.032 201.88 390.452 202.287C388.873 202.694 387.09 202.897 385.103 202.897C381.538 202.897 378.702 201.904 376.596 199.918C374.514 197.932 373.473 195.203 373.473 191.733V154.185H361.949V148.944H380.365Z" fill="#ABA293"/>
<path d="M120.918 249.015C120.918 254.161 120.248 258.373 118.908 261.651C117.568 264.93 115.785 267.467 113.559 269.262C111.357 271.032 108.928 272.265 106.272 272.959C103.615 273.653 100.959 274 98.3026 274H86.6359V224.533H97.5128C100.456 224.533 103.316 224.856 106.092 225.503C108.868 226.149 111.369 227.345 113.595 229.092C115.844 230.815 117.627 233.28 118.944 236.487C120.26 239.694 120.918 243.87 120.918 249.015ZM113.379 249.015C113.379 244.875 112.949 241.549 112.087 239.036C111.25 236.523 110.125 234.632 108.713 233.364C107.301 232.096 105.745 231.246 104.046 230.815C102.371 230.385 100.696 230.169 99.0205 230.169H93.7436V268.436H99.0923C100.839 268.436 102.562 268.161 104.262 267.61C105.961 267.06 107.492 266.079 108.856 264.667C110.244 263.255 111.345 261.28 112.159 258.744C112.973 256.207 113.379 252.964 113.379 249.015Z" fill="#ABA293"/>
<path d="M155.315 265.313C155.315 266.82 155.554 267.921 156.033 268.615C156.512 269.285 157.266 269.788 158.295 270.123L156.679 274.862C154.956 274.646 153.448 274.132 152.156 273.318C150.888 272.504 149.954 271.26 149.356 269.585C147.992 271.356 146.269 272.684 144.187 273.569C142.105 274.455 139.843 274.897 137.402 274.897C133.597 274.897 130.594 273.82 128.392 271.667C126.19 269.513 125.089 266.677 125.089 263.159C125.089 259.234 126.621 256.219 129.684 254.113C132.772 251.983 137.199 250.918 142.966 250.918H148.459V248.046C148.459 245.438 147.681 243.583 146.125 242.482C144.594 241.381 142.452 240.831 139.7 240.831C138.431 240.831 136.936 240.986 135.213 241.297C133.513 241.609 131.695 242.099 129.756 242.769L127.997 237.744C130.319 236.858 132.556 236.224 134.71 235.841C136.864 235.458 138.874 235.267 140.741 235.267C145.599 235.267 149.237 236.379 151.654 238.605C154.095 240.831 155.315 243.858 155.315 247.687V265.313ZM139.341 269.728C141.088 269.728 142.775 269.273 144.402 268.364C146.054 267.455 147.406 266.186 148.459 264.559V255.405H143.433C139.436 255.405 136.601 256.087 134.925 257.451C133.25 258.791 132.413 260.634 132.413 262.979C132.413 267.479 134.722 269.728 139.341 269.728Z" fill="#ABA293"/>
<path d="M167.348 274V268.903H173.092V241.262H167.348V236.164H178.369L179.625 245.031C181.061 241.896 182.82 239.491 184.902 237.815C187.008 236.116 189.736 235.267 193.087 235.267C194.188 235.267 195.157 235.35 195.994 235.518C196.856 235.685 197.729 235.901 198.615 236.164L197.538 249.446H192.225V241.549H192.189C186.517 241.549 182.449 245.605 179.984 253.718V268.903H187.666V274H167.348Z" fill="#ABA293"/>
<path d="M213.771 220.118V274H206.879V220.944L213.771 220.118ZM238.971 236.164L222.674 253.144L240.766 274H232.043L214.417 253.323L230.463 236.164H238.971Z" fill="#ABA293"/>
<path d="M309.165 274V250.954H291.576V274H284.468V224.533H291.576V245.103H309.165V224.533H316.273V274H309.165Z" fill="#ABA293"/>
<path d="M353.147 265.313C353.147 266.82 353.386 267.921 353.865 268.615C354.344 269.285 355.098 269.788 356.127 270.123L354.511 274.862C352.788 274.646 351.28 274.132 349.988 273.318C348.72 272.504 347.786 271.26 347.188 269.585C345.824 271.356 344.101 272.684 342.019 273.569C339.937 274.455 337.675 274.897 335.234 274.897C331.429 274.897 328.426 273.82 326.224 271.667C324.022 269.513 322.922 266.677 322.922 263.159C322.922 259.234 324.453 256.219 327.516 254.113C330.604 251.983 335.031 250.918 340.798 250.918H346.291V248.046C346.291 245.438 345.513 243.583 343.957 242.482C342.426 241.381 340.284 240.831 337.532 240.831C336.263 240.831 334.768 240.986 333.045 241.297C331.345 241.609 329.527 242.099 327.588 242.769L325.829 237.744C328.151 236.858 330.388 236.224 332.542 235.841C334.696 235.458 336.706 235.267 338.573 235.267C343.431 235.267 347.069 236.379 349.486 238.605C351.927 240.831 353.147 243.858 353.147 247.687V265.313ZM337.173 269.728C338.92 269.728 340.607 269.273 342.234 268.364C343.886 267.455 345.238 266.186 346.291 264.559V255.405H341.265C337.268 255.405 334.433 256.087 332.757 257.451C331.082 258.791 330.245 260.634 330.245 262.979C330.245 267.479 332.554 269.728 337.173 269.728Z" fill="#ABA293"/>
<path d="M365.18 274V268.903H370.924V241.262H365.18V236.164H376.201L377.457 245.031C378.893 241.896 380.652 239.491 382.734 237.815C384.84 236.116 387.568 235.267 390.919 235.267C392.02 235.267 392.989 235.35 393.826 235.518C394.688 235.685 395.561 235.901 396.447 236.164L395.37 249.446H390.057V241.549H390.021C384.349 241.549 380.281 245.605 377.816 253.718V268.903H385.498V274H365.18Z" fill="#ABA293"/>
<path d="M426.859 220.118L433.752 220.944V274H427.685L427.111 269.154C424.43 272.983 420.865 274.897 416.413 274.897C413.159 274.897 410.466 274.072 408.336 272.42C406.23 270.745 404.663 268.424 403.634 265.456C402.605 262.489 402.09 259.043 402.09 255.118C402.09 251.289 402.677 247.891 403.849 244.923C405.046 241.932 406.745 239.574 408.947 237.851C411.172 236.128 413.853 235.267 416.988 235.267C421.056 235.267 424.347 236.703 426.859 239.574V220.118ZM418.783 240.687C415.815 240.687 413.518 241.872 411.89 244.241C410.287 246.61 409.485 250.236 409.485 255.118C409.485 259.976 410.215 263.578 411.675 265.923C413.159 268.268 415.289 269.441 418.065 269.441C420.051 269.441 421.762 268.879 423.198 267.754C424.658 266.605 425.878 265.265 426.859 263.733V245.246C425.878 243.81 424.694 242.697 423.306 241.908C421.942 241.094 420.434 240.687 418.783 240.687Z" fill="#ABA293"/>
<path d="M452.928 248.872C452.928 253.682 453.467 257.87 454.544 261.436C455.621 265.002 457.272 268.292 459.498 271.308C461.747 274.299 464.583 277.374 468.005 280.533L464.272 284.267C460.395 281.084 457.069 277.805 454.293 274.431C451.54 271.056 449.422 267.311 447.939 263.195C446.479 259.055 445.749 254.28 445.749 248.872C445.749 243.463 446.479 238.701 447.939 234.585C449.422 230.444 451.54 226.687 454.293 223.313C457.069 219.938 460.395 216.66 464.272 213.477L468.005 217.21C464.583 220.345 461.759 223.409 459.534 226.4C457.308 229.391 455.645 232.682 454.544 236.272C453.467 239.838 452.928 244.038 452.928 248.872Z" fill="#ABA293"/>
<path d="M489.085 257.415C489.276 261.579 490.401 264.607 492.459 266.497C494.541 268.388 497.006 269.333 499.854 269.333C501.744 269.333 503.479 269.046 505.059 268.472C506.638 267.897 508.242 267.06 509.869 265.959L512.992 270.303C511.221 271.715 509.175 272.839 506.854 273.677C504.532 274.491 502.127 274.897 499.638 274.897C495.857 274.897 492.638 274.072 489.982 272.42C487.35 270.745 485.339 268.424 483.951 265.456C482.587 262.489 481.905 259.043 481.905 255.118C481.905 251.313 482.587 247.915 483.951 244.923C485.339 241.932 487.29 239.574 489.803 237.851C492.315 236.128 495.307 235.267 498.777 235.267C503.659 235.267 507.5 236.942 510.3 240.292C513.124 243.619 514.536 248.178 514.536 253.969C514.536 254.615 514.524 255.238 514.5 255.836C514.476 256.434 514.44 256.961 514.392 257.415H489.085ZM498.849 240.651C496.144 240.651 493.907 241.609 492.136 243.523C490.365 245.438 489.348 248.393 489.085 252.39H507.895C507.823 248.561 506.985 245.653 505.382 243.667C503.803 241.656 501.625 240.651 498.849 240.651Z" fill="#ABA293"/>
<path d="M523.446 274V268.903H529.189V241.262H523.446V236.164H534.466L535.723 245.031C537.159 241.896 538.918 239.491 541 237.815C543.106 236.116 545.834 235.267 549.184 235.267C550.285 235.267 551.254 235.35 552.092 235.518C552.954 235.685 553.827 235.901 554.713 236.164L553.636 249.446H548.323V241.549H548.287C542.615 241.549 538.547 245.605 536.082 253.718V268.903H543.764V274H523.446Z" fill="#ABA293"/>
<path d="M583.043 248.872C583.043 244.038 582.493 239.838 581.392 236.272C580.315 232.682 578.664 229.391 576.438 226.4C574.212 223.409 571.388 220.345 567.966 217.21L571.699 213.477C575.576 216.66 578.891 219.938 581.643 223.313C584.419 226.687 586.537 230.444 587.997 234.585C589.481 238.701 590.223 243.463 590.223 248.872C590.223 254.28 589.481 259.055 587.997 263.195C586.537 267.311 584.419 271.056 581.643 274.431C578.891 277.805 575.576 281.084 571.699 284.267L567.966 280.533C571.388 277.374 574.212 274.299 576.438 271.308C578.688 268.292 580.351 265.002 581.428 261.436C582.505 257.87 583.043 253.682 583.043 248.872Z" fill="#ABA293"/>
<path d="M0 364H85V449H0V364Z" fill="#3B3836"/>
<path d="M85 364H171V449H85V364Z" fill="#AC5C55"/>
<path d="M171 364H256V449H171V364Z" fill="#919A5B"/>
<path d="M256 364H342V449H256V364Z" fill="#B9914F"/>
<path d="M342 364H427V449H342V364Z" fill="#71938A"/>
<path d="M427 364H512V449H427V364Z" fill="#A26F7D"/>
<path d="M512 364H598V449H512V364Z" fill="#799570"/>
<path d="M598 364H683V449H598V364Z" fill="#ABA293"/>
<path d="M0 449H85V534H0V449Z" fill="#59524D"/>
<path d="M85 449H171V534H85V449Z" fill="#AC5C55"/>
<path d="M171 449H256V534H171V449Z" fill="#ABB66F"/>
<path d="M256 449H342V534H256V449Z" fill="#D0A864"/>
<path d="M342 449H427V534H342V449Z" fill="#87ADA3"/>
<path d="M427 449H512V534H427V449Z" fill="#C8899B"/>
<path d="M512 449H598V534H512V449Z" fill="#92B387"/>
<path d="M598 449H683V534H598V449Z" fill="#D8C7A7"/>
</g>
<defs>
<linearGradient id="paint0_linear_1416_208" x1="341.333" y1="0" x2="341.333" y2="682.667" gradientUnits="userSpaceOnUse">
<stop stop-color="#1C1C1C"/>
<stop offset="1" stop-color="#171717"/>
</linearGradient>
<clipPath id="clip0_1416_208">
<rect width="682.667" height="682.667" rx="24" fill="white"/>
</clipPath>
</defs>
</svg>
